<svg width="24" height="24" viewBox="0 0 24 24" fill="none" xmlns="http://www.w3.org/2000/svg">
<path d="M20 5.00003C17.7909 5.00003 16 6.79089 16 9.00002H18C18 7.89545 18.8955 7 20 7C21.1046 7 22 7.89541 22 9.00002C22 10.1046 21.1046 11 20 11H6V13H20C22.2091 13 24 11.2091 24 9.00002C24 6.79089 22.2091 5.00003 20 5.00003Z" fill="#D2D2D2"/>
<path d="M15.9273 15H4.00018V17H15.9273C17.0319 17 17.9273 17.8955 17.9273 19V19.0729C17.9273 20.1372 17.0645 21 16.0002 21V23.0001C18.1691 23.0001 19.9273 21.2418 19.9273 19.073V19.0001C19.9273 16.7909 18.1365 15 15.9273 15Z" fill="#D2D2D2"/>
<path d="M3.99998 11H0V13H3.99998V11Z" fill="#D2D2D2"/>
<path d="M9.98779 0.999969C7.81227 0.999969 6.04865 2.76359 6.04865 4.93911V5.19186H8.04866V4.93911C8.04866 3.86816 8.91683 2.99999 9.98779 2.99999C11.0587 2.99999 11.9269 3.86816 11.9269 4.93911V5C11.9269 6.10456 11.0315 7.00002 9.9269 7.00002H1.99982V8.99999H9.92694C12.1361 8.99999 13.9269 7.20913 13.9269 5V4.93911C13.9269 2.76359 12.1633 0.999969 9.98779 0.999969Z" fill="#D2D2D2"/>
</svg>
