<svg width="16" height="16" viewBox="0 0 16 16" fill="none" xmlns="http://www.w3.org/2000/svg">
<path d="M14.875 6.79028H1.125C0.779822 6.79028 0.5 7.33187 0.5 7.99996C0.5 8.66805 0.779822 9.20964 1.125 9.20964H14.875C15.2202 9.20964 15.5 8.66805 15.5 7.99996C15.5 7.33187 15.2202 6.79028 14.875 6.79028Z" fill="white"/>
<path d="M14.875 0.5H1.125C0.779822 0.5 0.5 1.04159 0.5 1.70968C0.5 2.37776 0.779822 2.91935 1.125 2.91935H14.875C15.2202 2.91935 15.5 2.37776 15.5 1.70968C15.5 1.04159 15.2202 0.5 14.875 0.5Z" fill="white"/>
<path d="M14.875 13.0807H1.125C0.779822 13.0807 0.5 13.6223 0.5 14.2904C0.5 14.9585 0.779822 15.5 1.125 15.5H14.875C15.2202 15.5 15.5 14.9585 15.5 14.2904C15.5 13.6223 15.2202 13.0807 14.875 13.0807Z" fill="white"/>
</svg>
